<?xml version="1.0" encoding="UTF-8"?>
<svg xmlns="http://www.w3.org/2000/svg" baseProfile="tiny" version="1.2" viewBox="0 0 283.46 283.46" width="2400" height="2400"><g fill="#189EFF"><path d="M188.45 171.31c-6.83-5.14-16.89-9.04-27.54-13.17-12.68-4.92-27.05-10.49-37.84-19.07-12.22-9.73-18.17-22-18.17-37.53 0-13.93 5.78-25.84 16.72-34.45 12.26-9.65 30.84-14.76 53.72-14.76 6.32 0 12.36.39 17.96 1.16.49.07.97-.2 1.17-.64.21-.45.1-.98-.27-1.31-14.42-12.97-33.06-20.11-52.47-20.11-20.98 0-40.71 8.17-55.55 23.01C71.34 69.27 63.17 89 63.17 109.98c0 20.98 8.17 40.71 23.01 55.54 14.83 14.83 34.56 23 55.55 23 16.95 0 33.1-5.32 46.71-15.39.28-.21.46-.55.46-.9.01-.37-.16-.71-.45-.92z"/><path d="M219.95 102.7c-.03-.3-.17-.58-.4-.77-16.39-13.6-29.65-19.15-45.76-19.15-8.6 0-15.19 1.72-19.59 5.12-3.81 2.94-5.83 7.05-5.83 11.86 0 13.49 16.49 19.64 35.58 26.76 9.84 3.67 20.01 7.46 29.35 12.65.17.09.36.14.55.14.13 0 .26-.02.38-.07.31-.11.55-.35.67-.65a78.362 78.362 0 0 0 5.38-28.63c0-2.31-.11-4.76-.33-7.26z"/></g><path fill="#189EFF" d="M41.93 224.23c-2.72-1.19-4.95-2.26-4.95-4.04 0-1.25 1.41-2.43 3.77-2.43 2.13 0 3.96.53 5.85 1.37.53.24 1.36.3 1.77-.53l.95-1.9c.35-.71.06-1.54-.59-2.02-1.36-.89-4.2-2.02-7.98-2.02-6.62 0-9.33 4.04-9.33 7.48 0 4.51 3.48 6.77 7.67 8.67 3.78 1.72 5.85 2.91 5.85 4.75 0 1.54-1.3 2.67-3.6 2.67-3.25 0-5.2-1.13-6.8-2.02-.71-.42-1.48-.24-1.77.36l-1.24 2.55c-.3.59.06 1.13.47 1.42 1.54 1.07 4.67 2.79 8.98 2.79 6.09 0 9.75-3.74 9.75-8.02 0-5.1-3.78-6.94-8.8-9.08zM202.22 241c.82-.09 1.38-.7 1.38-1.44v-13.93c0-7.13-.86-12.65-10-12.65-5.24 0-9.32 1.43-9.81 1.61-.68.25-1.11.68-.93 1.67l.56 2.36c.19.8.74 1.36 1.6 1.18 1.48-.43 4.69-1.36 7.96-1.36 3.58 0 4.69 2.05 4.57 6.57 0 0-2.78-.87-5.74-.87-7.34 0-11.41 3.97-11.41 9.24 0 5.95 3.76 7.97 9.13 7.97 4.38 0 8.89-.05 10.76-.17l1.93-.18zm-4.73-5.05c-.86 1.43-3.95 1.07-6.6 1.01-2.96-.06-4.44-1.11-4.44-3.65 0-2.98 2.53-4.71 5.86-4.71 2.59 0 4.81.74 5.18.99v6.36zM248.8 212.65c1.79 0 3.24-1.45 3.24-3.25s-1.45-3.25-3.24-3.25c-1.79 0-3.24 1.45-3.24 3.25s1.45 3.25 3.24 3.25zm0-6.02c1.51 0 2.73 1.25 2.73 2.78 0 1.53-1.23 2.77-2.73 2.77-1.51 0-2.73-1.25-2.73-2.77 0-1.54 1.23-2.78 2.73-2.78z"/><path fill="#189EFF" d="M247.7 211.05h.3c.05 0 .09-.04.09-.09v-1.2h.71l.61 1.23c.02.04.05.06.1.06h.35c.08 0 .11-.07.08-.14l-.64-1.19c.41-.16.69-.52.69-.95 0-.56-.46-1.01-1.02-1.01h-1.27a.09.09 0 0 0-.09.09v3.11c0 .04.04.09.09.09zm.4-2.84h.83c.3 0 .57.25.57.56 0 .33-.27.58-.57.58h-.83v-1.14zM68.89 212.65c-4.31 0-7.27 2.38-7.92 2.85v-12.25c0-.65-.65-1.31-1.3-1.31h-3.31c-.71 0-1.3.65-1.3 1.31v36.78c0 .71.59 1.31 1.3 1.31h3.25c.83 0 1.36-.53 1.36-1.31v-17.76c.59-1.19 2.96-3.98 7.15-3.98 3.55 0 5.44 2.67 5.44 7.19v14.56c0 .71.59 1.31 1.3 1.31h3.31c.65 0 1.3-.59 1.3-1.31V225.6c0-7.49-2.84-12.95-10.58-12.95zM138.13 225.89c-.33-9.32-4.21-13.24-13.17-13.24-4.3 0-9.43 1.3-10.18 1.63-.93.4-1.62.88-1.62 1.54v34.92c0 .71.59 1.31 1.3 1.31h2.74c.89 0 1.42-.53 1.42-1.31v-9.87c.83.22 5.07.58 8.62.47 6.32-.2 10.56-4.81 10.92-12.6.04-1.06-.03-2.85-.03-2.85zm-5.71 2.84c-.12 5.28-1.65 7.62-6.08 7.86-2.19.12-7.36-.49-7.36-.49-.21-.07-.36-.16-.36-.36v-16.78c0-.16.12-.3.28-.32.61-.07 2.84-.79 6.07-.79 5.39 0 7.29.8 7.47 7.65 0 .92 0 2.19-.02 3.23zM177.27 213.24h-2.48c-.71 0-1.71 0-2.07.83l-4.37 15.8h-.12l-7.33-16.57c-.12-.36-.53-.65-1.18-.65h-.41c-.53 0-.95.3-1.12.65l-7.39 16.51h-.12l-4.49-15.74c-.12-.53-.71-.83-1.18-.83h-3.55c-.95 0-1.36.71-.95 1.54l7.98 25.83c.12.42.53.71 1.12.71h.35c.59 0 .95-.3 1.06-.65l8.39-18.65h.12l8.33 18.65c.18.36.59.65 1.18.65h.24c.59 0 1.12-.3 1.24-.71l7.8-25.83c.43-.82-.1-1.54-1.05-1.54zM220.87 212.98c-.14 0-.28.01-.42.02-.24-.01-.47-.02-.72-.02-1.42 0-2.78.04-4.05.11-2.45.1-3.9.28-4.94.4 0 0-.66.06-1.43.16-.52.07-.9.28-1.12.58-.16.17-.25.39-.25.65v25.14c0 .71.59 1.31 1.3 1.31h2.72c1.12 0 1.89-.12 1.89-1.31v-20.9c0-.16.26-.37.4-.45.67-.4 2.27-.69 5.49-.69.31 0 .52 0 .75.01.74.07 1.91.3 2.29.52.59.3 1.3.12 1.66-.65l1.42-2.33c.86-1.84-2.39-2.55-4.99-2.55zM239.58 212.65c-8.22 0-13.59 6.59-13.59 14.31 0 7.84 5.38 14.37 13.65 14.37 4.55 0 8.16-1.66 10.11-3.39.83-.71.59-1.25.12-1.84l-1.6-2.49c-.47-.71-1-.53-1.6-.12-1.66 1.19-3.55 2.32-6.68 2.32-4.79 0-8.1-3.8-8.16-7.48h18.85c.59 0 1.18-.48 1.24-1.19.06-.47.12-1.42.12-1.9.01-7.3-5.37-12.59-12.46-12.59zm-7.45 11.28c.41-3.44 3.01-6.24 7.33-6.24 4.02 0 6.62 2.91 6.74 6.24h-14.07zM108.42 221.13c-.62-1.77-1.48-3.28-2.59-4.54a11.51 11.51 0 0 0-3.98-2.92c-1.54-.68-3.72-1.02-5.54-1.02-1.81 0-3.99.34-5.53 1.02-1.54.68-2.87 1.65-3.98 2.92-1.11 1.26-1.98 2.78-2.59 4.54-.62 1.77-.92 3.72-.92 5.86 0 2.17.31 4.13.92 5.88.62 1.75 1.48 3.26 2.59 4.52a11.51 11.51 0 0 0 3.98 2.92c1.54.68 3.72 1.02 5.53 1.02s4-.34 5.54-1.02c1.54-.68 2.86-1.65 3.98-2.92 1.11-1.26 1.98-2.77 2.59-4.52.62-1.75.92-3.71.92-5.88.01-2.13-.3-4.09-.92-5.86zm-12.25 15.48c-4.93 0-7.41-4.2-7.41-9.37s2.48-9.37 7.41-9.37 7.42 4.2 7.42 9.37-2.49 9.37-7.42 9.37z"/></svg>
